<?xml version="1.0" encoding="UTF-8" standalone="no"?>
<!-- Created with Inkscape (http://www.inkscape.org/) -->

<svg
   xmlns:dc="http://purl.org/dc/elements/1.1/"
   xmlns:cc="http://creativecommons.org/ns#"
   xmlns:rdf="http://www.w3.org/1999/02/22-rdf-syntax-ns#"
   xmlns:svg="http://www.w3.org/2000/svg"
   xmlns="http://www.w3.org/2000/svg"
   xmlns:sodipodi="http://sodipodi.sourceforge.net/DTD/sodipodi-0.dtd"
   xmlns:inkscape="http://www.inkscape.org/namespaces/inkscape"
   width="48px"
   height="48px"
   id="svg2986"
   version="1.1"
   inkscape:version="0.48.5 r10040"
   sodipodi:docname="New document 1">
  <defs
     id="defs2988" />
  <sodipodi:namedview
     id="base"
     pagecolor="#ffffff"
     bordercolor="#666666"
     borderopacity="1.0"
     inkscape:pageopacity="0.0"
     inkscape:pageshadow="2"
     inkscape:zoom="14"
     inkscape:cx="27.622798"
     inkscape:cy="24.591771"
     inkscape:current-layer="layer1"
     showgrid="true"
     inkscape:grid-bbox="true"
     inkscape:document-units="px"
     inkscape:window-width="770"
     inkscape:window-height="837"
     inkscape:window-x="8"
     inkscape:window-y="0"
     inkscape:window-maximized="0" />
  <metadata
     id="metadata2991">
    <rdf:RDF>
      <cc:Work
         rdf:about="">
        <dc:format>image/svg+xml</dc:format>
        <dc:type
           rdf:resource="http://purl.org/dc/dcmitype/StillImage" />
        <dc:title></dc:title>
      </cc:Work>
    </rdf:RDF>
  </metadata>
  <g
     id="layer1"
     inkscape:label="Layer 1"
     inkscape:groupmode="layer">
    <path
       style="fill:#aa0000;fill-opacity:1"
       d="m 11.459996,9.794285 c 7.580776,1.625325 15.41935,1.734534 23.571431,0 l -2.584055,15.656933 c -3.83675,3.584132 -16.294111,3.298329 -20.058805,-0.138531 z"
       id="rect2994"
       inkscape:connector-curvature="0"
       sodipodi:nodetypes="ccccc" />
    <path
       style="fill:#808080;fill-opacity:1"
       d="m 34.947079,10.071428 c -2.326415,1.779012 -4.842092,2.097953 -11.334933,2.000001 -6.0648,-0.0915 -9.429183,-0.625597 -11.830622,-2.000001 -2.1048199,-1.2046404 5.15052,-2.4999394 11.61873,-2.3571424 6.512621,0.1437775 12.600296,1.5515515 11.546825,2.3571424 z"
       id="path2999"
       inkscape:connector-curvature="0"
       sodipodi:nodetypes="sssss" />
    <path
       sodipodi:nodetypes="ccccc"
       inkscape:connector-curvature="0"
       id="path3059"
       d="m 12.388568,25.294284 c 6.899232,3.112762 12.776494,4.055964 20.071431,0.142856 L 33.46,41.658816 C 30.051822,45.67152 14.153263,44.024242 10.388569,40.587388 z"
       style="fill:#e6e6e6;fill-opacity:1" />
    <path
       sodipodi:nodetypes="ccccc"
       inkscape:connector-curvature="0"
       id="path3063"
       d="m 10.372519,40.588927 c 3.837776,2.215747 16.043901,4.971116 23.096408,1.059562 l -0.132795,0.499313 C 24.755503,46.249406 15.17101,43.454735 10.531426,41.064419 z"
       style="fill:#808080;fill-opacity:1" />
    <path
       sodipodi:type="arc"
       style="fill:#c18000;fill-opacity:1"
       id="path3065"
       sodipodi:cx="23.284016"
       sodipodi:cy="28.20101"
       sodipodi:rx="2.97995"
       sodipodi:ry="2.8284271"
       d="m 26.263966,28.20101 a 2.97995,2.8284271 0 1 1 -5.9599,0 2.97995,2.8284271 0 1 1 5.9599,0 z"
       transform="translate(-0.80812204,-0.40406102)" />
    <text
       xml:space="preserve"
       style="font-size:4px;font-style:normal;font-variant:normal;font-weight:bold;font-stretch:normal;line-height:125%;letter-spacing:0px;word-spacing:0px;fill:#e6e6e6;fill-opacity:1;stroke:none;font-family:Arial;-inkscape-font-specification:Arial Bold"
       x="16.061426"
       y="20.422836"
       id="text3835"
       sodipodi:linespacing="125%"><tspan
         sodipodi:role="line"
         id="tspan3837"
         x="16.061426"
         y="20.422836">Banner</tspan></text>
    <text
       xml:space="preserve"
       style="font-size:4px;font-style:normal;font-weight:bold;line-height:125%;letter-spacing:0px;word-spacing:0px;fill:#000000;fill-opacity:1;stroke:none;font-family:Sans;-inkscape-font-specification:Sans Bold"
       x="15.657364"
       y="35.070045"
       id="text3839"
       sodipodi:linespacing="125%"><tspan
         sodipodi:role="line"
         id="tspan3841"
         x="15.657364"
         y="35.070045" /></text>
    <text
       sodipodi:linespacing="125%"
       id="text3843"
       y="36.585274"
       x="15.859396"
       style="font-size:4px;font-style:normal;font-variant:normal;font-weight:bold;font-stretch:normal;line-height:125%;letter-spacing:0px;word-spacing:0px;fill:#aa0000;fill-opacity:1;stroke:none;font-family:Arial;-inkscape-font-specification:Arial Bold"
       xml:space="preserve"
       inkscape:transform-center-y="-3.8385797"><tspan
         y="36.585274"
         x="15.859396"
         sodipodi:role="line"
         id="tspan3847">Warhol</tspan></text>
    <path
       style="fill:#666666;fill-opacity:1"
       d="m 24.748734,10.522498 c -0.0035,0.168485 -0.316558,0.239382 -1.05129,0.438791 -0.734733,0.199411 -2.117371,0.168309 -2.062219,-0.07569 0.03187,-0.141024 0.62051,-0.03121 1.262204,-0.06249 0.641694,-0.03128 1.336447,-0.203648 1.460236,-0.320234 0.145882,-0.137395 -0.504442,-0.247006 -1.271392,-0.381743 -0.538102,-0.09453 -1.261572,0.121367 -1.255515,-0.1285576 0.0061,-0.2499251 0.906805,-0.135953 1.661345,0.020073 0.809481,0.167391 1.260134,0.341369 1.256631,0.509852 z"
       id="path3855"
       inkscape:connector-curvature="0"
       sodipodi:nodetypes="zssssszsz" />
  </g>
</svg>
